<svg width="24" height="24" viewBox="0 0 24 24" fill="none" xmlns="http://www.w3.org/2000/svg">
<path d="M12.0018 5.84768C8.59683 5.84768 5.84883 8.59568 5.84883 12.0007C5.84883 15.4057 8.59683 18.1537 12.0018 18.1537C15.4068 18.1537 18.1548 15.4057 18.1548 12.0007C18.1548 8.59568 15.4068 5.84768 12.0018 5.84768ZM12.0018 15.9997C9.79983 15.9997 8.00283 14.2027 8.00283 12.0007C8.00283 9.79868 9.79983 8.00168 12.0018 8.00168C14.2038 8.00168 16.0008 9.79868 16.0008 12.0007C16.0008 14.2027 14.2038 15.9997 12.0018 15.9997ZM18.4068 4.16168C17.6118 4.16168 16.9698 4.80368 16.9698 5.59868C16.9698 6.39368 17.6118 7.03568 18.4068 7.03568C19.2018 7.03568 19.8438 6.39668 19.8438 5.59868C19.8441 5.4099 19.8071 5.22294 19.7349 5.04848C19.6628 4.87403 19.557 4.71553 19.4235 4.58204C19.29 4.44855 19.1315 4.34272 18.957 4.27058C18.7826 4.19845 18.5956 4.16144 18.4068 4.16168ZM23.9958 12.0007C23.9958 10.3447 24.0108 8.70368 23.9178 7.05068C23.8248 5.13068 23.3868 3.42668 21.9828 2.02268C20.5758 0.615681 18.8748 0.180681 16.9548 0.0876813C15.2988 -0.00531865 13.6578 0.00968139 12.0048 0.00968139C10.3488 0.00968139 8.70783 -0.00531865 7.05483 0.0876813C5.13483 0.180681 3.43083 0.618681 2.02683 2.02268C0.619832 3.42968 0.184832 5.13068 0.0918317 7.05068C-0.00116826 8.70668 0.0138318 10.3477 0.0138318 12.0007C0.0138318 13.6537 -0.00116826 15.2977 0.0918317 16.9507C0.184832 18.8707 0.622832 20.5747 2.02683 21.9787C3.43383 23.3857 5.13483 23.8207 7.05483 23.9137C8.71083 24.0067 10.3518 23.9917 12.0048 23.9917C13.6608 23.9917 15.3018 24.0067 16.9548 23.9137C18.8748 23.8207 20.5788 23.3827 21.9828 21.9787C23.3898 20.5717 23.8248 18.8707 23.9178 16.9507C24.0138 15.2977 23.9958 13.6567 23.9958 12.0007ZM21.3558 19.0747C21.1368 19.6207 20.8728 20.0287 20.4498 20.4487C20.0268 20.8717 19.6218 21.1357 19.0758 21.3547C17.4978 21.9817 13.7508 21.8407 12.0018 21.8407C10.2528 21.8407 6.50283 21.9817 4.92483 21.3577C4.37883 21.1387 3.97083 20.8747 3.55083 20.4517C3.12783 20.0287 2.86383 19.6237 2.64483 19.0777C2.02083 17.4967 2.16183 13.7497 2.16183 12.0007C2.16183 10.2517 2.02083 6.50168 2.64483 4.92368C2.86383 4.37768 3.12783 3.96968 3.55083 3.54968C3.97383 3.12968 4.37883 2.86268 4.92483 2.64368C6.50283 2.01968 10.2528 2.16068 12.0018 2.16068C13.7508 2.16068 17.5008 2.01968 19.0788 2.64368C19.6248 2.86268 20.0328 3.12668 20.4528 3.54968C20.8758 3.97268 21.1398 4.37768 21.3588 4.92368C21.9828 6.50168 21.8418 10.2517 21.8418 12.0007C21.8418 13.7497 21.9828 17.4967 21.3558 19.0747Z" fill="#E61F5A"/>
</svg>
