<svg xmlns="http://www.w3.org/2000/svg" viewBox="0 0 60.48 60.46"><defs><style>.cls-1{fill:#aad865;}.cls-2{fill:#8dc440;}.cls-3{fill:#c11e78;}.cls-4{fill:#a81b66;}</style></defs><title>Recurso 20</title><g id="Capa_2" data-name="Capa 2"><g id="Layer_1" data-name="Layer 1"><path class="cls-1" d="M47.36,59.61c-7.07,2.51-11.57-1-12.7-4.17l-2.44.91v3.7a.35.35,0,0,1-.35.35H28.19a.36.36,0,0,1-.36-.35V56.3l-2-.77c-1.2,3.12-5.67,6.56-12.66,4.08S-1.32,50.69.21,46.31,11.61,41.43,18.7,44c5.93,2.12,7.74,6.53,7.47,9.77l1.66.62V44.65h4.39V54.4l2.07-.78c-.2-3.23,1.62-7.58,7.5-9.67,7.07-2.52,17-2,18.49,2.36S54.45,57.08,47.36,59.61Z"/><path class="cls-2" d="M34.65,55.43l25.63-9.12c1.53,4.38-5.84,10.78-12.92,13.29S35.78,58.57,34.65,55.43Z"/><path class="cls-3" d="M48.59,14.06V28.34a15.85,15.85,0,0,1-.65,4.53h0A16.3,16.3,0,0,1,32.27,44.65H27.83A16.28,16.28,0,0,1,12.41,32.88a15.82,15.82,0,0,1-.66-4.54V14.06A16.37,16.37,0,0,1,19.74,0,42.25,42.25,0,0,1,30.17,5.27,42.49,42.49,0,0,1,40.61,0,16.37,16.37,0,0,1,48.59,14.06Z"/><path class="cls-4" d="M48.59,14.05V28.33a16,16,0,0,1-.65,4.56A42.64,42.64,0,0,0,30.17,5.26,42.92,42.92,0,0,1,40.6,0,16.36,16.36,0,0,1,48.59,14.05Z"/><path class="cls-2" d="M25.83,55.43.2,46.31C-1.33,50.69,6,57.09,13.12,59.6S24.7,58.57,25.83,55.43Z"/></g></g></svg>