<svg width="33" height="32" viewBox="0 0 33 32" fill="none" xmlns="http://www.w3.org/2000/svg">
<path fill-rule="evenodd" clip-rule="evenodd" d="M18.7367 8.77151C18.2729 9.09308 17.7497 9.31905 17.1976 9.43623C16.6456 9.55342 16.0757 9.55949 15.5212 9.45407C14.9668 9.34865 14.4389 9.13385 13.9684 8.82223C13.4979 8.5106 13.0941 8.10838 12.7807 7.63904C12.4673 7.1697 12.2505 6.64263 12.143 6.08861C12.0354 5.53458 12.0393 4.96468 12.1544 4.41218C12.2695 3.85967 12.4935 3.33562 12.8133 2.8706C13.1331 2.40559 13.5423 2.00893 14.017 1.70376C14.9544 1.08466 16.0986 0.861813 17.1998 1.08393C18.3009 1.30605 19.2693 1.95506 19.8933 2.88911C20.5173 3.82315 20.7462 4.96625 20.5298 6.06853C20.3135 7.17081 19.6696 8.14262 18.7388 8.77151H18.7367ZM17.5573 3.47176C17.3259 3.30528 17.0633 3.18706 16.7853 3.12415C16.5072 3.06124 16.2193 3.05493 15.9388 3.10558C15.6583 3.15622 15.3908 3.26281 15.1523 3.41897C14.9138 3.57514 14.7091 3.7777 14.5505 4.0146C14.3919 4.25149 14.2826 4.51788 14.2291 4.79789C14.1756 5.07791 14.179 5.36583 14.239 5.64451C14.2991 5.92319 14.4146 6.18694 14.5788 6.42004C14.7429 6.65315 14.9522 6.85086 15.1943 7.00139C15.662 7.28552 16.2214 7.37824 16.7558 7.26023C17.2902 7.14222 17.7585 6.82258 18.063 6.36789C18.3676 5.9132 18.485 5.35852 18.3908 4.81941C18.2966 4.2803 17.998 3.79833 17.5573 3.47389V3.47176ZM23.1036 3.53551C23.7164 3.12326 24.4539 2.93762 25.1889 3.01054C25.9239 3.08346 26.6105 3.41038 27.1304 3.93501C27.5009 4.30848 27.7741 4.76715 27.926 5.27079C28.078 5.77443 28.104 6.30766 28.0018 6.82371C27.8997 7.33975 27.6724 7.82284 27.3401 8.23061C27.0077 8.63838 26.5804 8.95837 26.0956 9.16251C25.5133 9.40598 24.8715 9.47011 24.2526 9.34669C23.6336 9.22328 23.0656 8.91794 22.6212 8.46976C22.2872 8.13405 22.0315 7.72865 21.8725 7.28259C21.7135 6.83653 21.655 6.36083 21.7013 5.88954C21.7476 5.41825 21.8975 4.96302 22.1403 4.55643C22.3831 4.14984 22.7127 3.80194 23.1057 3.53764L23.1036 3.53551ZM24.1236 6.95676C24.3231 7.15543 24.5933 7.2667 24.8749 7.2661C25.0143 7.2658 25.1523 7.23805 25.2809 7.18443C25.4096 7.13081 25.5265 7.05236 25.6249 6.95357C25.7232 6.85479 25.8012 6.73759 25.8543 6.60868C25.9073 6.47977 25.9345 6.34167 25.9342 6.20226C25.9339 6.06285 25.9062 5.92486 25.8525 5.79618C25.7989 5.66749 25.7205 5.55063 25.6217 5.45226C25.4238 5.25328 25.1564 5.13899 24.8758 5.13351C24.7357 5.13323 24.5968 5.16073 24.4674 5.21442C24.3379 5.26811 24.2204 5.34694 24.1216 5.44633C24.0228 5.54573 23.9447 5.66372 23.8918 5.7935C23.8388 5.92327 23.8122 6.06224 23.8133 6.20239C23.814 6.48539 23.9253 6.7569 24.1236 6.95889V6.95676ZM6.15455 25.3975H10.0008V27.5331H6.15455C5.48123 27.5271 4.8378 27.2542 4.3653 26.7745C3.89099 26.293 3.62533 25.6441 3.6258 24.9683V21.122C3.3397 21.1124 3.0585 21.045 2.79919 20.9237C2.53988 20.8025 2.30783 20.6299 2.11705 20.4165C1.91433 20.2112 1.75524 19.967 1.64934 19.6985C1.54343 19.4301 1.49291 19.1431 1.5008 18.8546V14.2179C1.50718 13.2149 1.90455 12.2565 2.6058 11.5446C3.30493 10.8413 4.25055 10.4396 5.2408 10.4333H9.1508C8.6234 11.0614 8.22612 11.788 7.98205 12.571H5.2408C4.80951 12.5834 4.39915 12.7597 4.0933 13.064C3.79287 13.3729 3.6251 13.787 3.6258 14.2179V18.9609H5.7508V24.9661C5.74587 25.024 5.75275 25.0823 5.77101 25.1375C5.78928 25.1926 5.81855 25.2435 5.85705 25.287C5.94247 25.353 6.04664 25.3902 6.15455 25.3933V25.3975ZM21.667 11.5468C21.3193 11.1957 20.9057 10.9167 20.4498 10.726C19.994 10.5353 19.5049 10.4365 19.0108 10.4354H13.7408C12.7502 10.4433 11.8029 10.8428 11.1058 11.5468C10.4046 12.2586 10.0072 13.217 10.0008 14.22V20.9733C9.9978 21.5531 10.2185 22.1118 10.6171 22.533C10.8081 22.7462 11.0402 22.9185 11.2994 23.0397C11.5587 23.161 11.8398 23.2286 12.1258 23.2385V28.1749C12.1238 28.5118 12.1885 28.8458 12.3161 29.1576C12.4438 29.4695 12.6319 29.7529 12.8696 29.9918C13.2521 30.3488 13.7344 30.5804 14.2508 30.6548H18.5008C19.0985 30.5763 19.6461 30.2797 20.0384 29.8219C20.4306 29.3642 20.6398 28.7776 20.6258 28.1749V23.2364C20.9119 23.2268 21.1931 23.1594 21.4524 23.0381C21.7117 22.9169 21.9438 22.7443 22.1346 22.5309C22.3371 22.3259 22.4961 22.082 22.602 21.814C22.7079 21.5459 22.7585 21.2592 22.7508 20.9711V14.2179C22.7523 13.2195 22.3633 12.2601 21.667 11.5446V11.5468ZM20.6258 21.0774H18.5008V28.1749C18.4987 28.2869 18.453 28.3937 18.3733 28.4724C18.337 28.5153 18.2913 28.5492 18.2396 28.5713C18.188 28.5935 18.1319 28.6032 18.0758 28.5999H14.6546C14.5435 28.5947 14.4384 28.5483 14.3598 28.4697C14.2812 28.3911 14.2347 28.2859 14.2296 28.1749V21.0774H12.1258V14.2179C12.1258 13.7865 12.2937 13.3721 12.5933 13.064C12.8992 12.7597 13.3095 12.5834 13.7408 12.571H19.0108C19.3327 12.5767 19.646 12.6762 19.9121 12.8574C20.1782 13.0386 20.3857 13.2936 20.5089 13.591C20.5898 13.7899 20.6296 14.0032 20.6258 14.2179V21.0774ZM26.5971 27.531H22.7508V25.3954H26.5758C26.6837 25.3924 26.7879 25.3552 26.8733 25.2891C26.9161 25.2473 26.9496 25.1969 26.9715 25.1413C26.9935 25.0856 27.0035 25.0259 27.0008 24.9661V18.9609H29.1258V14.2179C29.1265 13.787 28.9587 13.3729 28.6583 13.064C28.3524 12.7597 27.9421 12.5834 27.5108 12.571H24.7696C24.5256 11.788 24.1283 11.0613 23.6008 10.4333H27.5108C28.5012 10.4423 29.4481 10.8417 30.1458 11.5446C30.847 12.2565 31.2444 13.2149 31.2508 14.2179V18.8546C31.2508 19.4348 31.0319 19.9915 30.6367 20.4123C30.2414 20.8351 29.7017 21.088 29.1258 21.1199V24.9661C29.1258 25.644 28.8602 26.2921 28.3863 26.7724C27.9138 27.2521 27.2704 27.5249 26.5971 27.531ZM7.8758 2.99576C7.24346 2.99503 6.62531 3.18314 6.10057 3.536C5.57583 3.88885 5.16842 4.39037 4.93055 4.97626C4.69049 5.56195 4.62817 6.20536 4.75136 6.82623C4.87456 7.4471 5.17781 8.01797 5.6233 8.46764C6.06863 8.91678 6.63774 9.22298 7.25793 9.34712C7.87812 9.47126 8.52124 9.4077 9.10514 9.16456C9.68903 8.92142 10.1872 8.50975 10.536 7.98212C10.8848 7.45449 11.0684 6.83486 11.0633 6.20239C11.0633 5.35239 10.7276 4.53639 10.1283 3.93501C9.83323 3.63779 9.48233 3.40181 9.09577 3.24063C8.70921 3.07944 8.29462 2.99622 7.8758 2.99576ZM7.8758 7.27126C7.73565 7.27155 7.59684 7.24405 7.46739 7.19035C7.33793 7.13666 7.22041 7.05784 7.1216 6.95844C7.0228 6.85905 6.94468 6.74105 6.89176 6.61128C6.83885 6.48151 6.81218 6.34253 6.8133 6.20239C6.81385 5.92017 6.92577 5.64959 7.12473 5.44944C7.32368 5.24928 7.5936 5.13575 7.8758 5.13351C8.15714 5.13847 8.42548 5.25287 8.62386 5.45244C8.82223 5.652 8.93503 5.92102 8.9383 6.20239C8.93775 6.4846 8.82583 6.75519 8.62688 6.95534C8.42792 7.15549 8.158 7.26902 7.8758 7.27126Z" fill="#FFA62B"/>
</svg>
