<svg width="33" height="32" viewBox="0 0 33 32" fill="none" xmlns="http://www.w3.org/2000/svg">
<g clip-path="url(#clip0)">
<path d="M30.3154 10.3646L28.3167 13.3708C29.2806 15.2933 29.7525 17.4249 29.6901 19.5746C29.6277 21.7243 29.0329 23.825 27.9592 25.6883H5.43666C4.04106 23.2672 3.46277 20.4609 3.78751 17.6853C4.11226 14.9097 5.32277 12.3126 7.23956 10.2791C9.15636 8.2456 11.6774 6.88388 14.429 6.39581C17.1806 5.90775 20.0162 6.31934 22.5154 7.56956L25.5217 5.57081C22.4609 3.60816 18.8304 2.72869 15.2109 3.07308C11.5913 3.41747 8.19176 4.96581 5.55609 7.47045C2.92042 9.97509 1.20087 13.2913 0.672515 16.8886C0.144156 20.486 0.837506 24.1566 2.64166 27.3133C2.92524 27.8045 3.33243 28.2129 3.82276 28.498C4.31309 28.7831 4.86949 28.9349 5.43666 28.9383H27.9429C28.5156 28.9406 29.0787 28.7915 29.5752 28.5061C30.0718 28.2208 30.4841 27.8093 30.7704 27.3133C32.2676 24.7197 33.019 21.7627 32.9416 18.769C32.8642 15.7752 31.961 12.8611 30.3317 10.3483L30.3154 10.3646ZM14.4067 21.4796C14.7085 21.7817 15.0669 22.0214 15.4615 22.185C15.856 22.3486 16.2789 22.4327 16.706 22.4327C17.1331 22.4327 17.556 22.3486 17.9506 22.185C18.3451 22.0214 18.7036 21.7817 19.0054 21.4796L28.2029 7.68331L14.4067 16.8808C14.1045 17.1826 13.8648 17.5411 13.7012 17.9356C13.5377 18.3302 13.4535 18.7531 13.4535 19.1802C13.4535 19.6073 13.5377 20.0302 13.7012 20.4247C13.8648 20.8193 14.1045 21.1777 14.4067 21.4796Z" fill="#FFA62B"/>
</g>
<defs>
<clipPath id="clip0">
<rect width="32" height="32" fill="white" transform="translate(0.5)"/>
</clipPath>
</defs>
</svg>
