<svg width="49" height="48" viewBox="0 0 49 48" fill="none" xmlns="http://www.w3.org/2000/svg">
<g clip-path="url(#clip0)">
<path d="M44.1502 22.2821C43.5747 22.2863 43.0046 22.3961 42.4674 22.6063L36.7271 17.8216C36.8683 17.3 36.9689 16.7589 36.9689 16.1885C36.9689 12.8102 34.3022 10.0949 30.9844 10.0949C27.6666 10.0949 25 12.8102 25 16.1885C25 17.1537 25.2393 18.0532 25.6271 18.8624L18.6636 27.2423C18.3849 27.1892 18.1022 27.1607 17.8186 27.157C17.3901 27.157 16.9856 27.2301 16.593 27.3374L10.4577 21.0902C10.5655 20.6929 10.6373 20.281 10.6373 19.8447C10.6373 17.144 8.50201 14.9698 5.8497 14.9698C3.19739 14.9698 1.06213 17.144 1.06213 19.8447C1.06213 22.5454 3.19739 24.7196 5.8497 24.7196C6.27819 24.7196 6.68273 24.6464 7.07532 24.5392L13.2106 30.7864C13.0955 31.1913 13.0351 31.6104 13.031 32.0319C13.031 34.7326 15.1663 36.9068 17.8186 36.9068C20.4709 36.9068 22.6062 34.7326 22.6062 32.0319C22.6062 31.4542 22.4913 30.9107 22.3117 30.3964L29.2848 22.0067C29.8282 22.1676 30.3908 22.2821 30.9844 22.2821C31.9291 22.2768 32.8589 22.042 33.6966 21.5972L39.4393 26.3819C39.3942 26.6379 39.3686 26.897 39.3627 27.157C39.3627 29.8577 41.4979 32.0319 44.1502 32.0319C46.8025 32.0319 48.9378 29.8577 48.9378 27.157C48.9378 24.4563 46.8025 22.2821 44.1502 22.2821Z" fill="#00A0C1"/>
</g>
<defs>
<clipPath id="clip0">
<rect width="48" height="48" fill="white" transform="translate(0.5)"/>
</clipPath>
</defs>
</svg>
