<svg width="73" height="72" viewBox="0 0 73 72" fill="none" xmlns="http://www.w3.org/2000/svg">
<g clip-path="url(#clip0)">
<path d="M70.3484 2.16174C69.9592 1.75878 69.4674 1.47979 68.9308 1.35757C68.3943 1.23534 67.8354 1.27496 67.3198 1.47178L3.8615 25.4705C3.31422 25.6864 2.84305 26.0704 2.51056 26.5714C2.17807 27.0723 2 27.6667 2 28.2754C2 28.8841 2.17807 29.4785 2.51056 29.9794C2.84305 30.4804 3.31422 30.8644 3.8615 31.0803L31.5524 42.5997L42.6287 71.3982C42.8368 71.9423 43.1935 72.4113 43.6549 72.7471C44.1162 73.0829 44.6619 73.271 45.2248 73.2881C45.8077 73.2757 46.3733 73.0798 46.847 72.7264C47.3207 72.3729 47.6804 71.8785 47.8785 71.3082L70.9542 5.31158C71.1507 4.78084 71.1981 4.20293 71.0909 3.64524C70.9836 3.08755 70.7261 2.57305 70.3484 2.16174ZM45.2248 61.8887L37.1771 40.8898L50.9937 26.5205L46.9266 22.2907L32.9946 36.78L12.9187 28.2904L63.4834 9.30138L45.2248 61.8887Z" fill="#00A0C1"/>
</g>
<defs>
<clipPath id="clip0">
<rect width="72" height="72" fill="white" transform="translate(0.5)"/>
</clipPath>
</defs>
</svg>
