<svg width="24" height="20" viewBox="0 0 24 20" fill="none" xmlns="http://www.w3.org/2000/svg">
<g clip-path="url(#clip0)">
<path d="M24.0004 2.46499C23.1188 2.85093 22.1594 3.12868 21.1711 3.23686C22.1971 2.6183 22.9655 1.64107 23.332 0.488518C22.3692 1.06973 21.3145 1.47729 20.2146 1.69311C19.7549 1.19439 19.1989 0.797093 18.5813 0.525965C17.9636 0.254836 17.2976 0.115691 16.6247 0.1172C13.902 0.1172 11.7123 2.35681 11.7123 5.10515C11.7123 5.49109 11.7584 5.87703 11.8333 6.24835C7.7565 6.03199 4.12048 4.05552 1.7032 1.02942C1.26274 1.79286 1.03193 2.66213 1.03477 3.54678C1.03477 5.27766 1.902 6.80386 3.22444 7.70146C2.44511 7.67032 1.68402 7.45294 1.00308 7.067V7.1284C1.00308 9.55221 2.69143 11.5608 4.94161 12.0228C4.51912 12.1342 4.08449 12.1911 3.64797 12.1924C3.32817 12.1924 3.02565 12.1602 2.72024 12.1164C3.34257 14.0928 5.15482 15.5284 7.3128 15.5752C5.62444 16.9172 3.50968 17.7066 1.2134 17.7066C0.801397 17.7066 0.421085 17.692 0.0263672 17.6452C2.20452 19.0632 4.78891 19.8819 7.5721 19.8819C16.6074 19.8819 21.5514 12.2859 21.5514 5.69283C21.5514 5.47647 21.5514 5.26011 21.537 5.04375C22.4936 4.33328 23.332 3.45322 24.0004 2.46499Z" fill="#21A6DF"/>
</g>
<defs>
<clipPath id="clip0">
<rect width="24" height="19.7647" fill="white" transform="translate(0 0.117188)"/>
</clipPath>
</defs>
</svg>
