<svg width="49" height="48" viewBox="0 0 49 48" fill="none" xmlns="http://www.w3.org/2000/svg">
<g clip-path="url(#clip0)">
<g clip-path="url(#clip1)">
<path d="M24.8406 22.8023C29.1448 22.8023 32.4925 19.3069 32.4925 15.0171C32.4925 10.7274 28.9854 7.39091 24.6812 7.39091C20.377 7.39091 17.0293 10.8863 17.0293 15.0171C17.0293 19.3069 20.5364 22.8023 24.8406 22.8023ZM24.6812 10.5685C24.8406 10.5685 24.8406 10.5685 24.6812 10.5685C27.2318 10.5685 29.3042 12.6339 29.3042 15.176C29.3042 17.7181 27.2318 19.6247 24.6812 19.6247C22.1306 19.6247 20.2176 17.5592 20.2176 15.176C20.2176 12.6339 22.29 10.5685 24.6812 10.5685Z" fill="#00A0C1"/>
<path d="M48.4339 21.8487C45.405 19.1477 41.4196 17.7178 37.2749 17.8767H35.9995C35.6807 19.1477 35.2025 20.2599 34.5648 21.2132C35.5213 21.0543 36.3184 21.0543 37.2749 21.0543C40.3037 20.8954 43.3326 21.8487 45.7238 23.5964V35.0357H48.9121V22.3253L48.4339 21.8487Z" fill="#00A0C1"/>
<path d="M33.6084 7.70815C34.4055 5.80159 36.6373 4.84831 38.7097 5.64271C40.6226 6.43711 41.5791 8.66143 40.782 10.7269C40.1444 12.1568 38.7097 13.1101 37.2749 13.1101C36.9561 13.1101 36.4779 13.1101 36.159 12.9512C36.3184 13.7456 36.3184 14.54 36.3184 15.1755V16.1288C36.6373 16.1288 36.9561 16.2877 37.2749 16.2877C41.2603 16.2877 44.4486 13.1101 44.4486 9.29695C44.4486 5.32495 41.2603 2.14735 37.4343 2.14735C34.8837 2.14735 32.6519 3.41839 31.3766 5.64271C32.1737 6.11935 32.9707 6.75487 33.6084 7.70815Z" fill="#00A0C1"/>
<path d="M15.4352 21.3722C14.7975 20.4189 14.3193 19.3067 14.0005 18.0357H12.7252C8.58037 17.8768 4.59501 19.3067 1.56613 21.8488L1.08789 22.3255V35.0358H4.27618V23.5965C6.82681 21.8488 9.69628 20.8955 12.7252 21.0544C13.6816 21.0544 14.6381 21.2133 15.4352 21.3722Z" fill="#00A0C1"/>
<path d="M12.7251 16.1294C13.044 16.1294 13.3628 16.1294 13.6816 15.9705V15.0172C13.6816 14.2228 13.6816 13.4284 13.841 12.7929C13.5222 12.9518 13.044 12.9518 12.7251 12.9518C10.6527 12.9518 8.89917 11.2041 8.89917 9.13866C8.89917 7.07322 10.6527 5.32554 12.7251 5.32554C14.3193 5.32554 15.754 6.27882 16.3917 7.70874C17.0293 6.91434 17.9858 6.11994 18.7829 5.48442C16.7105 2.14794 12.4063 1.03578 9.05859 3.10122C5.71088 5.16666 4.59498 9.45642 6.66737 12.7929C7.94269 14.8583 10.1745 16.1294 12.7251 16.1294Z" fill="#00A0C1"/>
<path d="M37.9126 31.3816L37.5937 30.9049C34.4054 27.4096 29.9418 25.3441 25.1594 25.503C20.377 25.3441 15.7539 27.4096 12.5657 30.9049L12.2468 31.3816V43.4565C12.2468 44.8864 13.3627 46.1574 14.9569 46.1574H35.3619C36.7967 46.1574 38.072 44.8864 38.072 43.4565V31.3816H37.9126ZM34.7243 42.9798H15.4351V32.4937C17.9857 29.9517 21.4929 28.6806 25.1594 28.6806C28.6665 28.5217 32.1736 29.9517 34.7243 32.4937V42.9798Z" fill="#00A0C1"/>
</g>
</g>
<defs>
<clipPath id="clip0">
<rect width="48" height="48" fill="white" transform="translate(0.5)"/>
</clipPath>
<clipPath id="clip1">
<rect width="48" height="44.2105" fill="white" transform="translate(1 2)"/>
</clipPath>
</defs>
</svg>
